# xmcd
#
# Track frame offsets:
#	183
#	10153
#	19903
#	32953
#	49543
#	64145
#	76605
#	91910
#	105485
#	120240
#	133298
#	146938
#	156698
#	170215
#	185345
#	198030
#	212138
#	228613
#	238915
#	250835
#
# Disc length: 3529
#
# Revision: 1
# Processed by: cddbd v1.5.1PL0 Copyright (c) Steve Scherf et al.
# Submitted via: EasyCDDAExtractor 5.0.5.1
# Normalized: r0:DSETVAR1
#
DISCID=1a0dc714
DTITLE=Various Artist - Country Heartbreakers
DYEAR=1994
DGENRE=Country
TTITLE0=Patsy Cline - Heartaches
TTITLE1=Jim Reeves - It Hurts So Much To See You Go
TTITLE2=Dolly Parton - I Will Always Love You
TTITLE3=Kenny Rogers - Don't Fall In Love With A Dreamer
TTITLE4=Crystal Gayle - Cry Me A River
TTITLE5=Loretta Lynn - Your Cheating Heart
TTITLE6=Olivia Newton-John - Please Mr Please
TTITLE7=Glen Campbell - Honey Come Back
TTITLE8=Billie Jo Spears - (Hey Won't You Play) Another Somebody Done Sombody Wrong Song
TTITLE9=Bobby Gentry - I'll Never Fall In Love Again
TTITLE10=Patsy Cline - She's Got You
TTITLE11=Jim Reeves - When Two Worlds Colide
TTITLE12=Dolly Parton - Daddy Come and Get Me
TTITLE13=Kenny Rogers - Till I Can Make It On My Own
TTITLE14=Crystal Gayle - I Still Miss Someone
TTITLE15=Loretta Lynn - Paper Roses
TTITLE16=Olivia Newton-John - I Honestly Love You
TTITLE17=Willie Nelson - There'll Be No Teardrops Tonight
TTITLE18=Billie Jo Spears - Misty Blue
TTITLE19=Jean Shepard - It Keeps Right on A-Hurtin'
EXTD=
EXTT0=
EXTT1=
EXTT2=
EXTT3=
EXTT4=
EXTT5=
EXTT6=
EXTT7=
EXTT8=
EXTT9=
EXTT10=
EXTT11=
EXTT12=
EXTT13=
EXTT14=
EXTT15=
EXTT16=
EXTT17=
EXTT18=
EXTT19=
PLAYORDER=
